# Wavefront OBJ file automatically generated by Tiled2Unity

# Vertices (Count = 113)
v 0 -64 0
v -16 -64 0
v -16 -48 0
v 0 -48 0
v -192 -64 0
v -208 -64 0
v -208 -48 0
v -192 -48 0
v -224 -64 0
v -224 -48 0
v -240 -64 0
v -240 -48 0
v -256 -64 0
v -256 -48 0
v -272 -64 0
v -272 -48 0
v -192 -80 0
v -208 -80 0
v -224 -80 0
v -240 -80 0
v -256 -80 0
v -272 -80 0
v -192 -96 0
v -208 -96 0
v -224 -96 0
v -240 -96 0
v -256 -96 0
v -272 -96 0
v -192 -112 0
v -208 -112 0
v -224 -112 0
v -240 -112 0
v -256 -112 0
v -272 -112 0
v -64 -16 0
v -80 -16 0
v -80 0 0
v -64 0 0
v -64 -32 0
v -80 -32 0
v -64 -48 0
v -80 -48 0
v -96 -48 0
v -96 -32 0
v -112 -48 0
v -112 -32 0
v -128 -48 0
v -128 -32 0
v -144 -64 0
v -160 -64 0
v -160 -48 0
v -144 -48 0
v -176 -64 0
v -176 -48 0
v 0 -80 0
v -16 -80 0
v -32 -80 0
v -32 -64 0
v -48 -80 0
v -48 -64 0
v -64 -80 0
v -64 -64 0
v -80 -80 0
v -80 -64 0
v -96 -80 0
v -96 -64 0
v -112 -80 0
v -112 -64 0
v -128 -80 0
v -128 -64 0
v -48 -112 0
v -64 -112 0
v -64 -96 0
v -48 -96 0
v -80 -112 0
v -80 -96 0
v -96 -112 0
v -96 -96 0
v -288 -112 0
v -288 -96 0
v -304 -112 0
v -304 -96 0
v -320 -112 0
v -320 -96 0
v 0 -128 0
v -16 -128 0
v -16 -112 0
v 0 -112 0
v -32 -128 0
v -32 -112 0
v -48 -128 0
v -64 -128 0
v -80 -128 0
v -96 -128 0
v -112 -128 0
v -112 -112 0
v -128 -128 0
v -128 -112 0
v -144 -128 0
v -144 -112 0
v -160 -128 0
v -160 -112 0
v -176 -128 0
v -176 -112 0
v -192 -128 0
v -208 -128 0
v -224 -128 0
v -240 -128 0
v -256 -128 0
v -272 -128 0
v -288 -128 0
v -304 -128 0
v -320 -128 0

# Texture cooridinates (Count = 28)
vt 0.4285889 0.8000244
vt 0.5714111 0.8000244
vt 0.5714111 0.9999756
vt 0.4285889 0.9999756
vt 1.743862E-05 0.6000244
vt 0.1428397 0.6000244
vt 0.1428397 0.7999756
vt 1.743862E-05 0.7999756
vt 1.743862E-05 0.4000244
vt 0.1428397 0.4000244
vt 0.1428397 0.5999756
vt 1.743862E-05 0.5999756
vt 1.743862E-05 0.2000244
vt 0.1428397 0.2000244
vt 0.1428397 0.3999756
vt 1.743862E-05 0.3999756
vt 1.743862E-05 2.44379E-05
vt 0.1428397 2.44379E-05
vt 0.1428397 0.1999756
vt 1.743862E-05 0.1999756
vt 0.571446 0.6000244
vt 0.7142683 0.6000244
vt 0.7142683 0.7999756
vt 0.571446 0.7999756
vt 0.7143031 0.8000244
vt 0.8571254 0.8000244
vt 0.8571254 0.9999756
vt 0.7143031 0.9999756

# Normal
vn 0 0 -1

# Groups (Count = 2)

g mesh_0001
f 1/1/1 2/2/1 3/3/1 4/4/1
f 5/5/1 6/6/1 7/7/1 8/8/1
f 6/5/1 9/6/1 10/7/1 7/8/1
f 9/5/1 11/6/1 12/7/1 10/8/1
f 11/5/1 13/6/1 14/7/1 12/8/1
f 13/5/1 15/6/1 16/7/1 14/8/1
f 17/9/1 18/10/1 6/11/1 5/12/1
f 18/9/1 19/10/1 9/11/1 6/12/1
f 19/9/1 20/10/1 11/11/1 9/12/1
f 20/9/1 21/10/1 13/11/1 11/12/1
f 21/9/1 22/10/1 15/11/1 13/12/1
f 23/13/1 24/14/1 18/15/1 17/16/1
f 24/13/1 25/14/1 19/15/1 18/16/1
f 25/13/1 26/14/1 20/15/1 19/16/1
f 26/13/1 27/14/1 21/15/1 20/16/1
f 27/13/1 28/14/1 22/15/1 21/16/1
f 29/17/1 30/18/1 24/19/1 23/20/1
f 30/17/1 31/18/1 25/19/1 24/20/1
f 31/17/1 32/18/1 26/19/1 25/20/1
f 32/17/1 33/18/1 27/19/1 26/20/1
f 33/17/1 34/18/1 28/19/1 27/20/1

g mesh_0002
f 35/21/1 36/22/1 37/23/1 38/24/1
f 39/21/1 40/22/1 36/23/1 35/24/1
f 41/21/1 42/22/1 40/23/1 39/24/1
f 42/21/1 43/22/1 44/23/1 40/24/1
f 43/21/1 45/22/1 46/23/1 44/24/1
f 45/21/1 47/22/1 48/23/1 46/24/1
f 49/21/1 50/22/1 51/23/1 52/24/1
f 50/21/1 53/22/1 54/23/1 51/24/1
f 53/21/1 5/22/1 8/23/1 54/24/1
f 55/21/1 56/22/1 2/23/1 1/24/1
f 56/21/1 57/22/1 58/23/1 2/24/1
f 57/21/1 59/22/1 60/23/1 58/24/1
f 59/21/1 61/22/1 62/23/1 60/24/1
f 61/21/1 63/22/1 64/23/1 62/24/1
f 63/21/1 65/22/1 66/23/1 64/24/1
f 65/21/1 67/22/1 68/23/1 66/24/1
f 67/21/1 69/22/1 70/23/1 68/24/1
f 17/21/1 18/22/1 6/23/1 5/24/1
f 18/21/1 19/22/1 9/23/1 6/24/1
f 25/21/1 26/22/1 20/23/1 19/24/1
f 26/21/1 27/22/1 21/23/1 20/24/1
f 71/25/1 72/26/1 73/27/1 74/28/1
f 72/25/1 75/26/1 76/27/1 73/28/1
f 75/25/1 77/26/1 78/27/1 76/28/1
f 34/25/1 79/26/1 80/27/1 28/28/1
f 79/25/1 81/26/1 82/27/1 80/28/1
f 81/25/1 83/26/1 84/27/1 82/28/1
f 85/25/1 86/26/1 87/27/1 88/28/1
f 86/25/1 89/26/1 90/27/1 87/28/1
f 89/25/1 91/26/1 71/27/1 90/28/1
f 91/25/1 92/26/1 72/27/1 71/28/1
f 92/25/1 93/26/1 75/27/1 72/28/1
f 93/25/1 94/26/1 77/27/1 75/28/1
f 94/25/1 95/26/1 96/27/1 77/28/1
f 95/25/1 97/26/1 98/27/1 96/28/1
f 97/25/1 99/26/1 100/27/1 98/28/1
f 99/25/1 101/26/1 102/27/1 100/28/1
f 101/25/1 103/26/1 104/27/1 102/28/1
f 105/25/1 106/26/1 30/27/1 29/28/1
f 106/25/1 107/26/1 31/27/1 30/28/1
f 107/25/1 108/26/1 32/27/1 31/28/1
f 108/25/1 109/26/1 33/27/1 32/28/1
f 109/25/1 110/26/1 34/27/1 33/28/1
f 110/25/1 111/26/1 79/27/1 34/28/1
f 111/25/1 112/26/1 81/27/1 79/28/1
f 112/25/1 113/26/1 83/27/1 81/28/1

