# Wavefront OBJ file automatically generated by Tiled2Unity

# Vertices (Count = 91)
v -352 -3856 0
v -368 -3856 0
v -368 -3840 0
v -352 -3840 0
v -384 -3856 0
v -384 -3840 0
v -400 -3856 0
v -400 -3840 0
v -416 -3856 0
v -416 -3840 0
v -432 -3856 0
v -432 -3840 0
v -448 -3856 0
v -448 -3840 0
v -160 -3872 0
v -176 -3872 0
v -176 -3856 0
v -160 -3856 0
v -192 -3872 0
v -192 -3856 0
v -208 -3872 0
v -208 -3856 0
v -224 -3872 0
v -240 -3872 0
v -240 -3856 0
v -224 -3856 0
v -256 -3872 0
v -256 -3856 0
v -272 -3872 0
v -272 -3856 0
v -288 -3872 0
v -288 -3856 0
v 0 -3888 0
v -16 -3888 0
v -16 -3872 0
v 0 -3872 0
v -32 -3888 0
v -32 -3872 0
v -48 -3888 0
v -48 -3872 0
v -64 -3888 0
v -64 -3872 0
v -80 -3888 0
v -80 -3872 0
v -96 -3888 0
v -96 -3872 0
v -112 -3888 0
v -112 -3872 0
v -128 -3888 0
v -128 -3872 0
v -144 -3888 0
v -144 -3872 0
v -160 -3888 0
v -176 -3888 0
v -288 -3888 0
v -304 -3888 0
v -304 -3872 0
v -320 -3888 0
v -320 -3872 0
v -336 -3888 0
v -336 -3872 0
v -352 -3888 0
v -352 -3872 0
v -352 -3792 0
v -368 -3792 0
v -368 -3776 0
v -352 -3776 0
v -384 -3792 0
v -384 -3776 0
v -400 -3792 0
v -400 -3776 0
v -416 -3792 0
v -416 -3776 0
v -432 -3792 0
v -432 -3776 0
v -448 -3792 0
v -448 -3776 0
v -352 -3808 0
v -368 -3808 0
v -384 -3808 0
v -400 -3808 0
v -416 -3808 0
v -432 -3808 0
v -448 -3808 0
v -352 -3824 0
v -368 -3824 0
v -384 -3824 0
v -400 -3824 0
v -416 -3824 0
v -432 -3824 0
v -448 -3824 0

# Texture cooridinates (Count = 24)
vt 0.2857317 0.8000244
vt 0.428554 0.8000244
vt 0.428554 0.9999756
vt 0.2857317 0.9999756
vt 0.8571603 0.8000244
vt 0.9999825 0.8000244
vt 0.9999825 0.9999756
vt 0.8571603 0.9999756
vt 1.743862E-05 0.6000244
vt 0.1428397 0.6000244
vt 0.1428397 0.7999756
vt 1.743862E-05 0.7999756
vt 1.743862E-05 0.4000244
vt 0.1428397 0.4000244
vt 0.1428397 0.5999756
vt 1.743862E-05 0.5999756
vt 1.743862E-05 0.2000244
vt 0.1428397 0.2000244
vt 0.1428397 0.3999756
vt 1.743862E-05 0.3999756
vt 1.743862E-05 2.44379E-05
vt 0.1428397 2.44379E-05
vt 0.1428397 0.1999756
vt 1.743862E-05 0.1999756

# Normal
vn 0 0 -1

# Groups (Count = 2)

g mesh_0001
f 1/1/1 2/2/1 3/3/1 4/4/1
f 2/1/1 5/2/1 6/3/1 3/4/1
f 5/1/1 7/2/1 8/3/1 6/4/1
f 7/1/1 9/2/1 10/3/1 8/4/1
f 9/1/1 11/2/1 12/3/1 10/4/1
f 11/1/1 13/2/1 14/3/1 12/4/1
f 15/5/1 16/6/1 17/7/1 18/8/1
f 16/5/1 19/6/1 20/7/1 17/8/1
f 19/5/1 21/6/1 22/7/1 20/8/1
f 23/1/1 24/2/1 25/3/1 26/4/1
f 24/1/1 27/2/1 28/3/1 25/4/1
f 27/1/1 29/2/1 30/3/1 28/4/1
f 29/1/1 31/2/1 32/3/1 30/4/1
f 33/1/1 34/2/1 35/3/1 36/4/1
f 34/1/1 37/2/1 38/3/1 35/4/1
f 37/1/1 39/2/1 40/3/1 38/4/1
f 39/1/1 41/2/1 42/3/1 40/4/1
f 41/1/1 43/2/1 44/3/1 42/4/1
f 43/1/1 45/2/1 46/3/1 44/4/1
f 45/1/1 47/2/1 48/3/1 46/4/1
f 47/1/1 49/2/1 50/3/1 48/4/1
f 49/1/1 51/2/1 52/3/1 50/4/1
f 51/5/1 53/6/1 15/7/1 52/8/1
f 53/5/1 54/6/1 16/7/1 15/8/1
f 55/5/1 56/6/1 57/7/1 31/8/1
f 56/5/1 58/6/1 59/7/1 57/8/1
f 58/5/1 60/6/1 61/7/1 59/8/1
f 60/5/1 62/6/1 63/7/1 61/8/1

g mesh_0002
f 64/9/1 65/10/1 66/11/1 67/12/1
f 65/9/1 68/10/1 69/11/1 66/12/1
f 68/9/1 70/10/1 71/11/1 69/12/1
f 70/9/1 72/10/1 73/11/1 71/12/1
f 72/9/1 74/10/1 75/11/1 73/12/1
f 74/9/1 76/10/1 77/11/1 75/12/1
f 78/13/1 79/14/1 65/15/1 64/16/1
f 79/13/1 80/14/1 68/15/1 65/16/1
f 80/13/1 81/14/1 70/15/1 68/16/1
f 81/13/1 82/14/1 72/15/1 70/16/1
f 82/13/1 83/14/1 74/15/1 72/16/1
f 83/13/1 84/14/1 76/15/1 74/16/1
f 85/17/1 86/18/1 79/19/1 78/20/1
f 86/17/1 87/18/1 80/19/1 79/20/1
f 87/17/1 88/18/1 81/19/1 80/20/1
f 88/17/1 89/18/1 82/19/1 81/20/1
f 89/17/1 90/18/1 83/19/1 82/20/1
f 90/17/1 91/18/1 84/19/1 83/20/1
f 4/21/1 3/22/1 86/23/1 85/24/1
f 3/21/1 6/22/1 87/23/1 86/24/1
f 6/21/1 8/22/1 88/23/1 87/24/1
f 8/21/1 10/22/1 89/23/1 88/24/1
f 10/21/1 12/22/1 90/23/1 89/24/1
f 12/21/1 14/22/1 91/23/1 90/24/1

