# Wavefront OBJ file automatically generated by Tiled2Unity

# Vertices (Count = 137)
v -256 -48 0
v -272 -48 0
v -272 -32 0
v -256 -32 0
v -288 -48 0
v -288 -32 0
v -304 -48 0
v -304 -32 0
v -320 -48 0
v -320 -32 0
v -336 -48 0
v -336 -32 0
v -352 -48 0
v -352 -32 0
v -368 -48 0
v -368 -32 0
v -384 -48 0
v -384 -32 0
v -400 -48 0
v -400 -32 0
v -416 -48 0
v -416 -32 0
v -432 -48 0
v -432 -32 0
v -448 -48 0
v -448 -32 0
v -176 -64 0
v -192 -64 0
v -192 -48 0
v -176 -48 0
v -208 -64 0
v -208 -48 0
v -224 -64 0
v -224 -48 0
v -176 -80 0
v -192 -80 0
v -208 -80 0
v -224 -80 0
v -464 -80 0
v -480 -80 0
v -480 -64 0
v -464 -64 0
v -496 -80 0
v -496 -64 0
v -176 -96 0
v -192 -96 0
v -208 -96 0
v -224 -96 0
v -384 -96 0
v -400 -96 0
v -400 -80 0
v -384 -80 0
v -464 -96 0
v -480 -96 0
v -496 -96 0
v -176 -112 0
v -192 -112 0
v -208 -112 0
v -224 -112 0
v -352 -112 0
v -368 -112 0
v -368 -96 0
v -352 -96 0
v -384 -112 0
v -400 -112 0
v -464 -112 0
v -480 -112 0
v -496 -112 0
v -64 -128 0
v -80 -128 0
v -80 -112 0
v -64 -112 0
v -96 -128 0
v -96 -112 0
v -112 -128 0
v -112 -112 0
v -128 -128 0
v -128 -112 0
v -384 -128 0
v -400 -128 0
v -464 -128 0
v -480 -128 0
v -496 -128 0
v 0 -144 0
v -16 -144 0
v -16 -128 0
v 0 -128 0
v -32 -144 0
v -32 -128 0
v -48 -144 0
v -48 -128 0
v -64 -144 0
v -80 -144 0
v -96 -144 0
v -112 -144 0
v -128 -144 0
v -144 -144 0
v -144 -128 0
v -160 -144 0
v -160 -128 0
v -176 -144 0
v -176 -128 0
v -192 -144 0
v -192 -128 0
v -208 -144 0
v -208 -128 0
v -224 -144 0
v -224 -128 0
v -240 -144 0
v -240 -128 0
v -256 -144 0
v -256 -128 0
v -272 -144 0
v -288 -144 0
v -288 -128 0
v -272 -128 0
v -304 -144 0
v -304 -128 0
v -320 -144 0
v -320 -128 0
v -336 -144 0
v -336 -128 0
v -352 -144 0
v -352 -128 0
v -368 -144 0
v -368 -128 0
v -384 -144 0
v -400 -144 0
v -416 -144 0
v -416 -128 0
v -432 -144 0
v -432 -128 0
v -448 -144 0
v -448 -128 0
v -464 -144 0
v -480 -144 0
v -496 -144 0

# Texture cooridinates (Count = 24)
vt 0.571446 0.6000244
vt 0.7142683 0.6000244
vt 0.7142683 0.7999756
vt 0.571446 0.7999756
vt 1.743862E-05 0.6000244
vt 0.1428397 0.6000244
vt 0.1428397 0.7999756
vt 1.743862E-05 0.7999756
vt 1.743862E-05 0.4000244
vt 0.1428397 0.4000244
vt 0.1428397 0.5999756
vt 1.743862E-05 0.5999756
vt 1.743862E-05 0.2000244
vt 0.1428397 0.2000244
vt 0.1428397 0.3999756
vt 1.743862E-05 0.3999756
vt 0.7143031 0.8000244
vt 0.8571254 0.8000244
vt 0.8571254 0.9999756
vt 0.7143031 0.9999756
vt 1.743862E-05 2.44379E-05
vt 0.1428397 2.44379E-05
vt 0.1428397 0.1999756
vt 1.743862E-05 0.1999756

# Normal
vn 0 0 -1

# Groups (Count = 2)

g mesh_0001
f 1/1/1 2/2/1 3/3/1 4/4/1
f 2/1/1 5/2/1 6/3/1 3/4/1
f 5/1/1 7/2/1 8/3/1 6/4/1
f 7/1/1 9/2/1 10/3/1 8/4/1
f 9/1/1 11/2/1 12/3/1 10/4/1
f 11/1/1 13/2/1 14/3/1 12/4/1
f 13/1/1 15/2/1 16/3/1 14/4/1
f 15/1/1 17/2/1 18/3/1 16/4/1
f 17/1/1 19/2/1 20/3/1 18/4/1
f 19/1/1 21/2/1 22/3/1 20/4/1
f 21/1/1 23/2/1 24/3/1 22/4/1
f 23/1/1 25/2/1 26/3/1 24/4/1
f 27/1/1 28/2/1 29/3/1 30/4/1
f 28/1/1 31/2/1 32/3/1 29/4/1
f 31/1/1 33/2/1 34/3/1 32/4/1
f 35/1/1 36/2/1 28/3/1 27/4/1
f 36/1/1 37/2/1 31/3/1 28/4/1
f 37/1/1 38/2/1 33/3/1 31/4/1
f 39/5/1 40/6/1 41/7/1 42/8/1
f 40/1/1 43/2/1 44/3/1 41/4/1
f 45/1/1 46/2/1 36/3/1 35/4/1
f 46/1/1 47/2/1 37/3/1 36/4/1
f 47/1/1 48/2/1 38/3/1 37/4/1
f 49/1/1 50/2/1 51/3/1 52/4/1
f 53/9/1 54/10/1 40/11/1 39/12/1
f 54/1/1 55/2/1 43/3/1 40/4/1
f 56/1/1 57/2/1 46/3/1 45/4/1
f 57/1/1 58/2/1 47/3/1 46/4/1
f 58/1/1 59/2/1 48/3/1 47/4/1
f 60/1/1 61/2/1 62/3/1 63/4/1
f 64/1/1 65/2/1 50/3/1 49/4/1
f 66/13/1 67/14/1 54/15/1 53/16/1
f 67/1/1 68/2/1 55/3/1 54/4/1
f 69/17/1 70/18/1 71/19/1 72/20/1
f 70/17/1 73/18/1 74/19/1 71/20/1
f 73/17/1 75/18/1 76/19/1 74/20/1
f 75/17/1 77/18/1 78/19/1 76/20/1
f 79/1/1 80/2/1 65/3/1 64/4/1
f 81/21/1 82/22/1 67/23/1 66/24/1
f 82/1/1 83/2/1 68/3/1 67/4/1
f 84/1/1 85/2/1 86/3/1 87/4/1
f 85/1/1 88/2/1 89/3/1 86/4/1
f 88/1/1 90/2/1 91/3/1 89/4/1
f 90/1/1 92/2/1 69/3/1 91/4/1
f 92/1/1 93/2/1 70/3/1 69/4/1
f 93/1/1 94/2/1 73/3/1 70/4/1
f 94/1/1 95/2/1 75/3/1 73/4/1
f 95/1/1 96/2/1 77/3/1 75/4/1
f 96/1/1 97/2/1 98/3/1 77/4/1
f 97/1/1 99/2/1 100/3/1 98/4/1
f 99/1/1 101/2/1 102/3/1 100/4/1
f 101/1/1 103/2/1 104/3/1 102/4/1
f 103/1/1 105/2/1 106/3/1 104/4/1
f 105/1/1 107/2/1 108/3/1 106/4/1
f 107/1/1 109/2/1 110/3/1 108/4/1
f 109/1/1 111/2/1 112/3/1 110/4/1
f 113/1/1 114/2/1 115/3/1 116/4/1
f 114/1/1 117/2/1 118/3/1 115/4/1
f 117/1/1 119/2/1 120/3/1 118/4/1
f 119/17/1 121/18/1 122/19/1 120/20/1
f 121/1/1 123/2/1 124/3/1 122/4/1
f 123/1/1 125/2/1 126/3/1 124/4/1
f 125/1/1 127/2/1 79/3/1 126/4/1
f 127/1/1 128/2/1 80/3/1 79/4/1
f 128/1/1 129/2/1 130/3/1 80/4/1
f 129/17/1 131/18/1 132/19/1 130/20/1
f 131/17/1 133/18/1 134/19/1 132/20/1
f 133/17/1 135/18/1 81/19/1 134/20/1
f 135/17/1 136/18/1 82/19/1 81/20/1
f 136/1/1 137/2/1 83/3/1 82/4/1

